PathFileType	4	(X/Y/Z)	C:/Users/beibeiliu/ov580/test_trc/capture2\sequence.26_training_dense_left.trc
DataRate	CameraRate	NumFrames	NumMarkers	Units	OrigDataRate	OrigDataStartFrame	OrigNumFrames
120	120	10	19	mm	120	336	383
Frame#	Time	ThumbCMC			ThumbMCP			ThumbIP			ThumbTip			IndexMCP			IndexPIP			IndexTip			MiddleMCP			MiddlePIP			MiddleTip			RingMCP			RingPIP			RingTip			PinkyMCP			PinkyPIP			PinkyTip			BackHand1			BackHand2			BackHand3	
		X0	Y0	Z0	X1	Y1	Z1	X2	Y2	Z2	X3	Y3	Z3	X4	Y4	Z4	X5	Y5	Z5	X6	Y6	Z6	X7	Y7	Z7	X8	Y8	Z8	X9	Y9	Z9	X10	Y10	Z10	X11	Y11	Z11	X12	Y12	Z12	X13	Y13	Z13	X14	Y14	Z14	X15	Y15	Z15	X16	Y16	Z16	X17	Y17	Z17	X18	Y18	Z18	
335	2.79167	-128.017	0.890199	46.9965	-139.065	-17.0345	30.7197	-141.907	-31.4163	7.41913	-147.428	-41.1959	-13.3892	-138.358	1.94053	-25.0306	-148.112	-7.12548	-48.2237	-163.065	-12.1514	-69.2341	-151.412	13.9989	-35.9814	-160.248	3.99843	-58.1705	-175.538	-4.36353	-81.475	-173.04	22.9152	-26.9828	-198.866	5.31569	-33.3904	-213.38	-19.0427	-11.7753	-189.51	38.3827	-16.1418	-206.043	13.3324	-18.1588	-214.825	-5.55049	0.30336	-147.341	52.3396	12.2426	-139.528	61.4351	43.1082	-127.3	35.5803	28.8027	
336	2.8	-132.51	7.46208	45.5526	-138.819	-15.7388	29.1547	-144.061	-27.7578	1.74987	-147.687	-40.3014	-18.5167	-144.049	6.25913	-29.1733	-154.85	-0.785657	-48.2631	-169.425	-9.05091	-72.3612	-159.063	21.7317	-35.9425	-169.23	8.6771	-57.5789	-182.305	1.12513	-80.4218	-183.471	29.6914	-25.5106	-204.651	4.52139	-29.4556	-214.486	-17.6808	-8.25256	-193.815	38.6122	-15.6429	-213.803	14.5841	-13.8582	-214.206	-5.55236	4.56332	-151.451	56.241	15.7545	-142.818	62.5486	43.9166	-128.72	39.0943	25.2743	
337	2.80833	-130.667	6.64166	41.5365	-137.073	-16.1403	23.3447	-142.08	-24.9176	2.97923	-145.804	-37.9623	-20.9458	-147.478	13.0309	-31.4957	-161.299	5.92913	-51.5191	-172.759	-1.56483	-74.1549	-163.403	27.9289	-37.3747	-172.478	16.3413	-57.0819	-188.171	8.22016	-80.2294	-182.468	32.2095	-24.6788	-208.939	8.6663	-28.3699	-217.066	-11.5289	-7.7721	-198.638	44.3085	-12.0186	-217.24	19.6571	-11.5757	-217.702	-2.10346	7.95095	-158.772	61.2223	13.9282	-147.372	65.8014	40.6497	-129.329	42.1108	27.1302	
338	2.81667	-131.029	9.49171	40.5082	-137.689	-11.0094	19.2913	-139.901	-23.2549	-0.214281	-143.3	-34.047	-24.0594	-150.038	18.3054	-33.1592	-161.609	12.5939	-52.4725	-174.494	6.28811	-76.6666	-162.289	31.1281	-36.8637	-178.024	23.1231	-60.3861	-190.151	15.7843	-82.0334	-188.137	34.2044	-29.3924	-210.809	11.2093	-29.6859	-214.231	-11.1962	-7.53762	-199.276	43.9661	-12.6657	-214.439	18.7673	-14.0612	-218.746	-1.16906	6.83682	-159.061	64.7497	14.7765	-149.418	65.7633	43.9952	-132.397	41.5326	24.3503	
339	2.825	-131.509	13.1717	36.8437	-135.039	-8.69683	18.1985	-136.245	-22.6479	-6.42031	-142.983	-27.7512	-29.5894	-150.64	26.7394	-32.8256	-160.155	16.8711	-57.5238	-175.037	16.1686	-78.4031	-166.64	37.9405	-40.3163	-180.839	31.2212	-62.4614	-193.937	24.9139	-84.4946	-189.785	42.6924	-26.4753	-205.14	18.3941	-34.2364	-213.064	-8.21064	-12.077	-200.686	47.3426	-13.0002	-216.871	20.2653	-14.9218	-211.669	-2.99723	3.38719	-160.065	63.4793	14.8325	-151.436	67.7992	43.0069	-133.904	49.0119	23.2124	
340	2.83333	-131.373	17.0999	36.3062	-133.106	-5.30325	13.9011	-135.341	-14.1316	-6.88853	-137.381	-23.8973	-31.2919	-147.849	29.8389	-35.6668	-161.805	27.6772	-57.1179	-173.946	23.8936	-76.9982	-164.766	43.0537	-41.1455	-180.074	38.3	-62.2389	-193.035	31.5447	-83.4471	-188.085	42.0629	-30.62	-208.908	20.1052	-34.5956	-211.1	-4.59737	-17.1807	-201.003	49.8704	-13.0211	-215.994	23.4367	-17.4803	-213.427	-2.36878	3.24383	-166.46	69.1701	15.5094	-157.209	69.6718	44.778	-134.876	52.4325	24.8329	
341	2.84167	-126.409	18.8301	35.6992	-128.868	1.64595	10.1737	-130.257	-8.48335	-11.6248	-132.01	-15.9433	-32.792	-150.323	38.8848	-36.0267	-160.036	32.9194	-59.7487	-175.717	32.0181	-81.9195	-166.739	50.5565	-39.4389	-178.675	44.7471	-59.76	-193.351	36.0411	-86.9552	-186.446	45.8372	-30.7308	-202.642	24.9651	-37.2652	-207.155	-2.04951	-19.1556	-206.018	51.6626	-15.3745	-213.144	27.0111	-19.3676	-210.038	1.38645	-2.97967	-163.611	69.0232	18.6929	-158.245	71.2199	47.0196	-134.279	55.0576	25.7374	
342	2.85	-122.708	23.7816	33.2967	-121.716	8.09276	8.33905	-121.114	-1.27814	-15.3253	-122.45	-6.65841	-37.4252	-147.846	45.1944	-38.139	-156.542	38.1528	-61.0988	-171.727	36.7609	-82.0292	-161.998	55.2315	-36.8985	-174.948	49.434	-60.2416	-186.85	38.6091	-85.8557	-188.654	52.9645	-29.4579	-198.744	24.1013	-40.369	-200.391	-2.01444	-20.525	-200.403	55.3607	-12.358	-212.322	26.0296	-20.0023	-204.87	2.77679	-2.56648	-167.378	76.0217	21.8847	-157.205	73.5792	46.4773	-136.589	62.0362	29.2913	
343	2.85833	-123.74	32.0739	33.098	-117.325	15.9299	13.2409	-113.872	11.4239	-18.0406	-116.285	6.95352	-39.4705	-141.419	49.3678	-36.6039	-153.542	43.9871	-60.8986	-162.165	37.2736	-82.3113	-161.585	58.7556	-40.3225	-170.211	48.0549	-65.2255	-181.746	36.3476	-85.6701	-181.238	52.9042	-30.9672	-193.734	24.9264	-42.9653	-196.259	-1.29812	-24.8584	-197.384	52.5945	-18.8708	-205.623	25.5721	-22.9565	-196.271	2.69098	-8.02509	-169.165	76.0786	20.2799	-163.313	74.0666	47.7358	-136.409	65.6769	30.0353	
344	2.86667	-117.288	35.9769	38.0821	-112.281	26.4629	10.7003	-107.701	21.0052	-13.1493	-106.035	16.9902	-33.797	-139.798	53.7937	-34.5696	-143.37	42.9376	-58.701	-158.423	34.2373	-80.5308	-160.077	57.1788	-39.2355	-166.22	43.2211	-64.0826	-176.422	23.7238	-87.0309	-180.82	51.7088	-31.4137	-184.692	24.7803	-44.1757	-179.735	-5.73315	-26.8578	-194.083	50.8505	-17.3447	-194.059	20.4135	-24.9471	-184.124	-1.93252	-8.23448	-168.574	76.7586	20.9967	-166.033	74.7353	49.4031	-136.921	69.1433	28.1696	
